<?xml version="1.0" encoding="utf-8"?>
<!-- Generator: Adobe Illustrator 18.1.1, SVG Export Plug-In . SVG Version: 6.00 Build 0)  -->
<!DOCTYPE svg PUBLIC "-//W3C//DTD SVG 1.1//EN" "http://www.w3.org/Graphics/SVG/1.1/DTD/svg11.dtd">
<svg version="1.1" id="Layer_1" xmlns="http://www.w3.org/2000/svg" xmlns:xlink="http://www.w3.org/1999/xlink" x="0px" y="0px"
	 viewBox="0 0 24 6" enable-background="new 0 0 24 6" xml:space="preserve">
<g>
	<path fill="#0046B4" d="M3,2c0.6,0,1,0.4,1,1S3.6,4,3,4S2,3.6,2,3S2.4,2,3,2 M3,0C1.3,0,0,1.3,0,3s1.3,3,3,3s3-1.3,3-3S4.7,0,3,0
		L3,0z"/>
</g>
<g>
	<path fill="#0046B4" d="M21,2c0.6,0,1,0.4,1,1s-0.4,1-1,1s-1-0.4-1-1S20.4,2,21,2 M21,0c-1.7,0-3,1.3-3,3s1.3,3,3,3s3-1.3,3-3
		S22.7,0,21,0L21,0z"/>
</g>
<g>
	<path fill="#0046B4" d="M12,2c0.6,0,1,0.4,1,1s-0.4,1-1,1s-1-0.4-1-1S11.4,2,12,2 M12,0c-1.7,0-3,1.3-3,3s1.3,3,3,3s3-1.3,3-3
		S13.7,0,12,0L12,0z"/>
</g>
</svg>
