<svg id="Layer_1" data-name="Layer 1" xmlns="http://www.w3.org/2000/svg" viewBox="0 0 44 44"><title>ic-footer-tw</title><path d="M0,0V44H44V0ZM33.6,15.49a10.79,10.79,0,0,1-1.11,1.29c-.89.92-.94,1-.94,1.79a17.92,17.92,0,0,1-1.08,5,14.4,14.4,0,0,1-5.28,6.49,12.89,12.89,0,0,1-10.4,1.24,11.84,11.84,0,0,1-3.06-1.47,4.5,4.5,0,0,1,1.3-.13,8.64,8.64,0,0,0,4.25-1.24l.86-.54-1-.35a4.88,4.88,0,0,1-3-2.74c-.1-.35-.06-.37.82-.37l.92,0-.78-.38A5.23,5.23,0,0,1,13,21.93a6.21,6.21,0,0,1-.57-2.24c0-.05.36.05.75.18,1.09.42,1.24.32.6-.38a5,5,0,0,1-1-5l.27-.8,1,1.09a12.69,12.69,0,0,0,7.55,3.88l.79.1,0-.82v-.1l0-.45v-.28h0v.28l0,.45V18a4.79,4.79,0,0,1,3.09-4.82,5.19,5.19,0,0,1,2.78-.07,6.36,6.36,0,0,1,1.35.74l.78.55.86-.28a8.62,8.62,0,0,0,1.4-.57c.27-.15.51-.23.51-.18a4.91,4.91,0,0,1-1.08,1.79c-.67.75-.48.82.87.32C33.74,15.17,33.76,15.17,33.6,15.49Z"/></svg>