<svg id="Layer_1" data-name="Layer 1" xmlns="http://www.w3.org/2000/svg" viewBox="0 0 44 44"><title>ic-footer-ig</title><circle cx="21.96" cy="22.34" r="3.63"/><path d="M26.49,13.43H17.42a4.51,4.51,0,0,0-3.22,1.15,4.51,4.51,0,0,0-1.15,3.22v9.07a4.54,4.54,0,0,0,1.24,3.3,4.65,4.65,0,0,0,3.22,1.15h9a4.51,4.51,0,0,0,3.22-1.15A4.22,4.22,0,0,0,30.95,27V17.88a4.65,4.65,0,0,0-1.15-3.22A4.41,4.41,0,0,0,26.49,13.43ZM22,27.94a5.61,5.61,0,1,1,0-11.21,5.61,5.61,0,1,1,0,11.21ZM27.81,17.8a1.32,1.32,0,1,1,1.32-1.32A1.3,1.3,0,0,1,27.81,17.8Z"/><path d="M0,0V44H44V0ZM32.93,27a6.54,6.54,0,0,1-1.81,4.7,6.42,6.42,0,0,1-4.62,1.73h-9a6.42,6.42,0,0,1-4.62-1.73A6.21,6.21,0,0,1,11.07,27V17.88a6.1,6.1,0,0,1,6.43-6.43h9.07a6.34,6.34,0,0,1,4.62,1.81,6.28,6.28,0,0,1,1.73,4.62Z"/></svg>