<svg id="Layer_1" data-name="Layer 1" xmlns="http://www.w3.org/2000/svg" viewBox="0 0 36 36"><title>ic-menu-ig</title><path d="M18,13.87a4.27,4.27,0,1,0,4.34,4.27A4.33,4.33,0,0,0,18,13.87Zm0,7a2.76,2.76,0,1,1,2.76-2.76A2.76,2.76,0,0,1,18,20.91Z"/><path d="M22.43,12.68a1,1,0,1,0,1,1A1,1,0,0,0,22.43,12.68Z"/><path d="M25,11.23a4.83,4.83,0,0,0-3.52-1.38H14.58a4.65,4.65,0,0,0-4.9,4.9v6.91a4.73,4.73,0,0,0,1.38,3.58,4.89,4.89,0,0,0,3.52,1.32h6.85a4.89,4.89,0,0,0,3.52-1.32,5,5,0,0,0,1.38-3.58V14.75A4.79,4.79,0,0,0,25,11.23Zm-.19,10.43a3.22,3.22,0,0,1-.94,2.45,3.43,3.43,0,0,1-2.45.88H14.58a3.54,3.54,0,0,1-2.45-.88,3.46,3.46,0,0,1-.94-2.51V14.69a3.43,3.43,0,0,1,.88-2.45,3.43,3.43,0,0,1,2.45-.88h6.91a3.36,3.36,0,0,1,2.51.94,3.54,3.54,0,0,1,.88,2.45Z"/></svg>