<svg id="Layer_1" data-name="Layer 1" xmlns="http://www.w3.org/2000/svg" viewBox="0 0 36 36"><title>ic-menu-tw</title><path d="M18.33,14.93l0,.63-.61-.08a9.76,9.76,0,0,1-5.81-3l-.81-.84-.21.62a3.84,3.84,0,0,0,.76,3.81c.49.54.38.62-.46.3-.29-.1-.55-.18-.57-.14A4.78,4.78,0,0,0,11.1,18a4,4,0,0,0,1.67,1.65l.6.3h-.71c-.68,0-.71,0-.63.28a3.75,3.75,0,0,0,2.28,2.11l.76.27-.66.41a6.65,6.65,0,0,1-3.27,1,3.46,3.46,0,0,0-1,.1,9.11,9.11,0,0,0,2.35,1.13,9.91,9.91,0,0,0,8-1,11.08,11.08,0,0,0,4.06-5,13.79,13.79,0,0,0,.83-3.86c0-.59,0-.67.72-1.38A8.3,8.3,0,0,0,27,13c.12-.24.11-.24-.51,0-1,.39-1.18.33-.67-.24a3.78,3.78,0,0,0,.83-1.38s-.18,0-.39.14a6.63,6.63,0,0,1-1.07.44l-.66.22-.6-.42a4.89,4.89,0,0,0-1-.57,4,4,0,0,0-2.13.05,3.69,3.69,0,0,0-2.38,3.71Z"/></svg>