<svg id="Layer_1" data-name="Layer 1" xmlns="http://www.w3.org/2000/svg" viewBox="0 0 64 58"><title>ic-widget-ig</title><path d="M36.5,20H27.41a4.52,4.52,0,0,0-3.22,1.16A4.52,4.52,0,0,0,23,24.37v9.09a4.56,4.56,0,0,0,1.24,3.31,4.66,4.66,0,0,0,3.22,1.16h9a4.52,4.52,0,0,0,3.22-1.16A4.23,4.23,0,0,0,41,33.55V24.45a4.66,4.66,0,0,0-1.16-3.22A4.42,4.42,0,0,0,36.5,20ZM32,34.54A5.62,5.62,0,0,1,32,23.3a5.62,5.62,0,1,1,0,11.24Zm5.87-10.16A1.32,1.32,0,1,1,39.15,23,1.31,1.31,0,0,1,37.83,24.37Z"/><path d="M0,0V58H64V0ZM43,33.55a6.55,6.55,0,0,1-1.82,4.71A6.43,6.43,0,0,1,36.5,40h-9a6.43,6.43,0,0,1-4.63-1.74,6.23,6.23,0,0,1-1.82-4.71V24.45A6.12,6.12,0,0,1,27.5,18h9.09A6.09,6.09,0,0,1,43,24.45Z"/><circle cx="31.96" cy="28.92" r="3.64"/></svg>