<svg id="Layer_1" data-name="Layer 1" xmlns="http://www.w3.org/2000/svg" viewBox="0 0 64 58"><title>ic-widget-tw</title><path d="M0,0V58H64V0ZM43.63,22.48a10.82,10.82,0,0,1-1.11,1.29c-.89.92-.94,1-.94,1.79a18,18,0,0,1-1.08,5A14.43,14.43,0,0,1,35.2,37.1a12.92,12.92,0,0,1-10.43,1.24,11.87,11.87,0,0,1-3.07-1.48,4.52,4.52,0,0,1,1.3-.13,8.66,8.66,0,0,0,4.26-1.24l.86-.54-1-.35a4.89,4.89,0,0,1-3-2.75c-.1-.35-.06-.37.83-.37l.92,0-.78-.39A5.24,5.24,0,0,1,23,28.93a6.23,6.23,0,0,1-.57-2.25c0-.05.37.05.75.18,1.1.42,1.24.32.6-.39a5,5,0,0,1-1-5l.27-.81,1,1.09a12.72,12.72,0,0,0,7.57,3.89l.79.1,0-.82v-.1l0-.45v-.28h0v.28l0,.45V25a4.81,4.81,0,0,1,3.1-4.83,5.21,5.21,0,0,1,2.78-.07,6.37,6.37,0,0,1,1.35.74l.78.55.86-.29a8.64,8.64,0,0,0,1.4-.57c.27-.15.51-.23.51-.18a4.92,4.92,0,0,1-1.08,1.79c-.67.75-.48.82.87.32C43.77,22.16,43.79,22.16,43.63,22.48Z"/></svg>